/* XPM */
static char *_da2997821c14196dce7ec2cd6a92d10[] = {
/* columns rows colors chars-per-pixel */
"64 64 184 2 ",
"   c #765E7F",
".  c #BF524E",
"X  c #BF524F",
"o  c #BE534F",
"O  c #BF534F",
"+  c #AA565D",
"@  c #B55555",
"#  c #BC5351",
"$  c #BD5351",
"%  c #BF5350",
"&  c #B85453",
"*  c #BA5452",
"=  c #B25558",
"-  c #9E5865",
";  c #945A6C",
":  c #835C77",
">  c #8C5B71",
",  c #A55760",
"<  c #C0534F",
"1  c #C15450",
"2  c #C25450",
"3  c #C35551",
"4  c #C45450",
"5  c #C55551",
"6  c #C65652",
"7  c #C85652",
"8  c #C85752",
"9  c #CA5753",
"0  c #CB5854",
"q  c #CD5955",
"w  c #D05A56",
"e  c #D25B56",
"r  c #D55C57",
"t  c #D75D58",
"y  c #DA5E59",
"u  c #DC5F5A",
"i  c #DE605B",
"p  c #E1615C",
"a  c #E3625D",
"s  c #E6635E",
"d  c #E8645F",
"f  c #F77F5C",
"g  c #F87C5E",
"h  c #EB6560",
"j  c #ED6661",
"k  c #F06762",
"l  c #F26863",
"z  c #F46964",
"x  c #F66964",
"c  c #F76A65",
"v  c #F96A66",
"b  c #FA6B66",
"n  c #FB6C67",
"m  c #FC6C67",
"M  c #FD6C67",
"N  c #FD6D67",
"B  c #FF6E67",
"V  c #FE6F67",
"C  c #FE6D68",
"Z  c #FF6D68",
"A  c #FF6D69",
"S  c #FB7662",
"D  c #FC7463",
"F  c #FD7164",
"G  c #FD7165",
"H  c #FE7066",
"J  c #FA7861",
"K  c #E3A93F",
"L  c #E2AB3E",
"P  c #E1AD3D",
"I  c #E1AE3C",
"U  c #E0AF3C",
"Y  c #E0B03A",
"T  c #E0B13A",
"R  c #E0B03B",
"E  c #E1B03B",
"W  c #E1B13B",
"Q  c #E2B23C",
"!  c #E3B23C",
"~  c #E3B33C",
"^  c #E4B33C",
"/  c #E5B43C",
"(  c #E6B43C",
")  c #E7B53D",
"_  c #E8B63D",
"`  c #E9B73D",
"'  c #EBB93D",
"]  c #EAB83E",
"[  c #EBB93E",
"{  c #EDBA3E",
"}  c #EEBB3F",
"|  c #EFBB3F",
" . c #EFBC3F",
".. c #F0BD3F",
"X. c #F1BD3F",
"o. c #E89E47",
"O. c #ED934E",
"+. c #EA9B49",
"@. c #EB984B",
"#. c #F38657",
"$. c #F18C53",
"%. c #F08E52",
"&. c #F28955",
"*. c #F6815A",
"=. c #EF9050",
"-. c #E4A741",
";. c #E5A443",
":. c #E7A245",
">. c #F2BE40",
",. c #F4BF40",
"<. c #F5C040",
"1. c #F6C141",
"2. c #F7C241",
"3. c #F8C341",
"4. c #F9C442",
"5. c #FAC442",
"6. c #FBC542",
"7. c #FCC642",
"8. c #FDC642",
"9. c #FCC643",
"0. c #FFC742",
"q. c #FEC743",
"w. c #FFC942",
"e. c #FEC843",
"r. c #FFC843",
"t. c #FFC943",
"y. c #FFC844",
"u. c #FFC944",
"i. c #005FAC",
"p. c #005EAD",
"a. c #005FAD",
"s. c #005FAE",
"d. c #0060AC",
"f. c #0060AD",
"g. c #0060AE",
"h. c #0060AF",
"j. c #0061B0",
"k. c #0061B1",
"l. c #0062B2",
"z. c #0062B3",
"x. c #0063B4",
"c. c #0063B5",
"v. c #0064B6",
"b. c #0065B7",
"n. c #0065B9",
"m. c #0066BA",
"M. c #0067BB",
"N. c #0067BC",
"B. c #0068BE",
"V. c #0069BE",
"C. c #0069BF",
"Z. c #176DBF",
"A. c #1A6DBD",
"S. c #3B68A7",
"D. c #3269AD",
"F. c #276BB4",
"G. c #206CB9",
"H. c #586393",
"J. c #506499",
"K. c #6E6085",
"L. c #61628D",
"P. c #4366A1",
"I. c #0069C0",
"U. c #006AC1",
"Y. c #006BC3",
"T. c #006BC4",
"R. c #006CC5",
"E. c #006DC6",
"W. c #006DC7",
"Q. c #0D6FC5",
"!. c #006EC8",
"~. c #006FC9",
"^. c #006FCA",
"/. c #006FCB",
"(. c #126EC2",
"). c #0770C9",
"_. c #0470CB",
"`. c #0070CC",
"'. c #0070CD",
"]. c #0071CD",
"[. c #0271CD",
"{. c #0070CE",
"}. c #0071CE",
"|. c None",
/* pixels */
"|.|.|.|.|.|.|.|.|.|.|.|.|.|.|.|.|.|.|.|.|.|.|.|.|.|.|.|.|.|.|.t.q.|.|.|.|.|.|.|.|.|.|.|.|.|.|.|.|.|.|.|.|.|.|.|.|.|.|.|.|.|.|.|.",
"|.|.|.|.|.|.|.|.|.|.|.|.|.|.|.|.|.|.|.|.|.|.|.|.|.|.|.|.|.q.t.q.q.t.q.|.|.|.|.|.|.|.|.|.|.|.|.|.|.|.|.|.|.|.|.|.|.|.|.|.|.|.|.|.",
"|.|.|.|.|.|.|.|.|.|.|.|.|.|.|.|.|.|.|.|.|.|.|.|.|.|.|.|.t.t.t.q.t.q.t.t.|.|.|.|.|.|.|.|.|.|.|.|.|.|.|.|.|.|.|.|.|.|.|.|.|.|.|.|.",
"|.|.|.|.|.|.|.|.|.|.|.|.|.|.|.|.|.|.|.|.|.|.|.|.|.|.q.t.q.t.q.t.q.t.q.t.t.t.|.|.|.|.|.|.|.|.|.|.|.|.|.|.|.|.|.|.|.|.|.|.|.|.|.|.",
"|.|.|.|.|.|.|.|.|.|.|.|.|.|.|.|.|.|.|.|.|.|.|.|.u.q.t.q.t.q.t.q.q.t.q.t.q.t.q.u.|.|.|.|.|.|.|.|.|.|.|.|.|.|.|.|.|.|.|.|.|.|.|.|.",
"|.|.|.|.|.|.|.|.|.|.|.|.|.|.|.|.|.|.|.|.|.|.t.q.q.t.q.t.q.t.q.t.t.q.t.q.t.q.t.q.q.t.|.|.|.|.|.|.|.|.|.|.|.|.|.|.|.|.|.|.|.|.|.|.",
"|.|.|.|.|.|.|.|.|.|.|.|.|.|.|.|.|.|.|.|.|.t.q.t.t.q.t.q.t.q.t.q.q.t.q.t.q.t.q.t.t.q.t.|.|.|.|.|.|.|.|.|.|.|.|.|.|.|.|.|.|.|.|.|.",
"|.|.|.|.|.|.|.|.|.|.|.|.|.|.|.|.|.|.|.q.t.q.t.q.q.t.q.t.q.t.q.t.t.q.t.q.t.q.t.q.q.t.q.q.t.|.|.|.|.|.|.|.|.|.|.|.|.|.|.|.|.|.|.|.",
"|.|.|.|.|.|.|.|.|.|.|.|.|.|.|.|.|.t.q.t.q.t.q.t.q.t.q.t.q.t.q.t.q.t.q.t.q.t.q.t.q.t.q.t.q.t.q.|.|.|.|.|.|.|.|.|.|.|.|.|.|.|.|.|.",
"|.|.|.|.|.|.|.|.|.|.|.|.|.|.|.|.t.q.t.q.t.q.t.q.t.q.t.q.t.q.t.q.t.q.t.q.t.q.t.q.t.q.t.q.t.q.t.q.|.|.|.|.|.|.|.|.|.|.|.|.|.|.|.|.",
"|.|.|.|.|.|.|.|.|.|.|.|.|.|.t.t.q.t.q.t.q.t.q.t.q.t.q.t.q.t.q.t.q.t.q.t.q.t.q.t.q.t.q.t.q.t.q.t.t.t.|.|.|.|.|.|.|.|.|.|.|.|.|.|.",
"|.|.|.|.|.|.|.|.|.|.|.|.t.q.t.q.t.q.t.q.t.q.t.q.t.q.t.q.t.q.t.q.t.q.t.q.t.q.t.q.t.q.t.q.t.q.t.q.t.q.q.t.|.|.|.|.|.|.|.|.|.|.|.|.",
"|.|.|.|.|.|.|.|.|.|.q.t.q.t.q.t.q.t.q.t.q.t.q.t.q.t.q.t.q.t.q.t.q.t.q.t.q.t.q.t.q.t.q.t.q.t.q.t.q.t.q.t.t.q.|.|.|.|.|.|.|.|.|.|.",
"|.|.|.|.|.|.|.|.|.q.t.q.t.q.t.q.t.q.t.q.t.q.t.q.t.q.t.q.t.q.t.q.t.q.t.q.t.q.t.q.t.q.t.q.t.q.t.q.t.q.t.q.q.t.t.|.|.|.|.|.|.|.|.|.",
"|.|.|.|.|.|.|.q.t.q.q.t.q.t.q.t.q.t.q.t.q.t.q.t.q.t.q.t.q.t.q.t.q.t.q.t.q.t.q.t.q.t.q.t.q.t.q.t.q.t.q.t.t.q.t.q.t.|.|.|.|.|.|.|.",
"|.|.|.|.|.q.t.t.q.t.t.q.t.q.t.q.t.q.t.q.t.q.t.q.t.q.t.q.t.q.t.q.t.q.t.q.t.q.t.q.t.q.t.q.t.q.t.q.t.q.t.q.q.t.q.t.q.t.t.|.|.|.|.|.",
"|.|.|.u.t.q.t.q.q.t.q.t.q.t.q.t.q.t.q.t.q.t.q.t.q.t.q.t.q.t.q.t.t.q.t.q.t.q.t.q.t.q.t.q.t.q.t.q.q.t.q.t.t.q.t.q.t.q.t.q.u.|.|.|.",
"|.|.[ 9.q.t.q.t.t.q.t.q.t.q.t.q.t.q.t.q.t.q.t.q.t.q.t.q.t.q.t.q.q.t.q.t.q.t.q.t.q.t.q.t.q.t.q.t.t.q.t.q.q.t.q.t.q.t.q.u.q.[ |.|.",
"|.|.T T  .q.t.q.q.t.q.t.q.t.q.t.q.t.q.t.q.t.q.t.q.t.q.t.q.t.q.t.t.q.t.q.t.q.t.q.t.q.t.q.t.q.t.q.q.t.q.t.t.q.t.q.t.t.q.| T T |.|.",
"|.|.T E T ! ,.t.t.q.t.q.t.q.t.q.t.q.t.q.t.q.t.q.t.q.t.q.t.q.t.q.q.t.q.t.q.t.q.t.q.t.q.t.q.t.q.t.t.q.t.q.q.t.q.u.q.,.! T U T |.|.",
"|.|.|.|.U T U ) 3.9.u.t.t.q.t.q.q.t.q.t.q.t.q.t.q.t.q.t.q.t.q.t.t.q.t.q.t.q.t.q.t.q.t.q.t.q.t.q.q.t.q.t.q.t.9.3._ U U T |.|.|.|.",
"|.|.|.|.|.|.U T T [ q.q.q.t.q.t.t.q.t.q.t.q.t.q.t.q.t.q.t.q.t.q.q.t.q.t.q.t.q.t.q.t.q.t.q.t.q.t.t.q.t.q.q.q.[ Y E T |.|.|.|.|.|.",
"|.|.|.|.|.|.|.T T U T >.q.t.t.q.q.t.q.t.q.t.q.t.q.t.q.t.q.t.q.t.t.q.t.q.t.q.t.q.t.q.t.q.t.q.t.q.q.t.q.q.X.T U ! E |.|.|.|.|.|.|.",
"|.|.|.|.|.|.|.|.|.E U T ^ ,.q.t.t.q.t.q.t.q.t.q.t.q.t.q.t.q.t.q.q.t.q.t.q.t.q.t.q.t.q.t.q.t.q.t.t.q.1.^ Y Y T |.|.|.|.|.|.|.|.|.",
"|.|.|.|.|.|.|.|.|.|.|.T T U _ 5.q.t.q.t.t.q.t.q.t.q.t.q.q.t.q.t.t.q.t.q.t.q.t.q.q.t.q.t.q.t.t.q.3._ E E T |.|.|.|.|.|.|.|.|.|.|.",
"|.|.|.|.|.|.|.|.|.|.|.G %.U T U [ q.t.q.q.t.q.t.q.t.q.t.t.q.t.q.q.t.q.t.q.t.q.t.t.q.t.q.t.q.q.[ U U U %.G |.|.|.|.|.|.|.|.|.|.|.",
"|.|.|.|.|.|.|.|.|.|.C C C G @.T ! T X.q.t.q.q.t.t.q.t.q.q.t.q.t.t.q.t.q.t.q.t.q.q.t.q.t.q.X.! U T @.D C C C |.|.|.|.|.|.|.|.|.|.",
"|.|.|.|.|.|.|.|.C C C C C C C g :.E T / 1.q.t.q.q.t.q.t.t.q.t.q.q.t.q.t.q.t.q.t.t.q.t.1.) Y Y :.g C C C C C C C |.|.|.|.|.|.|.|.",
"|.|.|.|.|.|.C C C C C C C C C C C #.K E E _ 3.u.t.q.q.t.q.t.q.t.q.t.q.t.t.q.t.q.u.5._ U T K #.C C C C C C C C C C C |.|.|.|.|.|.",
"|.|.|.|.|.C C C C C C C C C C C C C G %.U T ! [ q.t.t.q.t.q.t.q.t.q.t.q.q.t.q.q.[ E T U =.Z C C C C C C C C C C C C C |.|.|.|.|.",
"|.|.|.C C C C C C C C C C C C C C C C C D +.T E T >.9.q.q.t.q.t.q.t.q.t.q.u.X.! ! E +.D C C C C C C C C C C C C C C Z Z Z |.|.|.",
"|.|.4 p C C C C C C C C C C C C C C C C Z Z f ;.U T _ 3.t.q.t.q.t.q.t.q.3.^ T T ;.*.C C C C C C C C C C C C C C C C Z Z p 4 |.|.",
"|.|.X < 0 h C C Z Z Z Z Z Z Z Z Z Z Z Z Z Z Z Z &.K ! T _ q.t.q.q.t.5._ ! U K &.Z Z Z Z Z Z Z Z Z Z Z Z C C C C C C h 0 X X |.|.",
"|.|.|.o X o e z Z Z Z Z Z Z Z Z Z Z Z Z Z Z Z Z Z G O.U T ! [ q.u.[ T E U O.G C C C Z Z Z Z Z Z Z Z Z Z C C C C z e < o o |.|.|.",
"|.|.|.|.|.o o < i c Z Z Z Z Z Z Z Z Z Z Z Z Z Z Z Z C J +.T U ! ^ E E o.J C C C C C C C Z Z Z Z Z Z Z Z C C b y 2 o < |.|.|.|.|.",
"|.|.|.|.|.|.< o < < a Z Z Z Z Z Z Z Z Z Z Z Z Z Z Z C C C *.-.! E -.*.C C C C C C C C C Z Z Z Z Z Z Z Z C p 2 o # X |.|.|.|.|.|.",
"|.|.|.|.|.|.|.|.# < < 0 j Z Z Z Z Z Z Z Z Z Z Z Z Z Z Z C C G $.$.G C C C C C C C C C C C C C C Z Z Z h 0 < o 2 |.|.|.|.|.|.|.|.",
"|.|.|.|.|.|.|.|.|.|.< o o e x Z Z Z Z Z Z Z Z Z Z Z Z Z C C C C C C C C C C C C C C C C C C C C Z x e < < o |.|.|.|.|.|.|.|.|.|.",
"|.|.|.|.|.|.|.|.|.|.|.* # < < i b Z Z Z Z Z Z Z Z Z Z Z C C C C C C C C C C C C C C C C C C C Z i < < # * |.|.|.|.|.|.|.|.|.|.|.",
"|.|.|.|.|.|.|.|.|.|.|.}.A.: < < 4 a Z Z Z Z Z Z Z Z Z Z C C C C C C C C C C C C C C C C C C s 4 o o : A.}.|.|.|.|.|.|.|.|.|.|.|.",
"|.|.|.|.|.|.|.|.|.}.}.}.}.}.D.- 2 o 0 l Z C C C C C C C C C C C C C C C C C C C C C C C l 0 o o - D.}.}.}.}.}.|.|.|.|.|.|.|.|.|.",
"|.|.|.|.|.|.|.}.}.}.}.}.}.}.}.}.J.= < o r z C C C C C C C C C C C C C C C C C C C C b r < o = J.}.}.}.}.}.}.}.}.}.|.|.|.|.|.|.|.",
"|.|.|.|.|.|.}.}.}.}.}.}.}.}.}.}.}.Q.K.# < < i Z C C C C C C C C C C C C C C C C Z i 2 X # K.Q.}.}.}.}.}.}.}.}.}.}.}.|.|.|.|.|.|.",
"|.|.|.|.}.}.}.}.}.}.}.}.}.}.}.}.}.}.}.G.> < # 4 d C C C C C C C C C C C C C C d 4 o o > G.}.}.}.}.}.}.}.}.}.}.}.}.}.}.}.|.|.|.|.",
"|.|.V.}.}.}.}.}.}.}.}.}.}.}.}.}.}.}.}.}.}.S., < o q l C Z Z Z Z C C C C C l q < o , S.}.}.}.}.}.}.}.}.}.}.}.}.}.}.}.}.}.}.V.|.|.",
"|.|.f.z.R.}.}.}.}.}.}.}.}.}.}.}.}.}.}.}.}.}._.H.@ o < t b Z Z Z C C C b t < o @ H._.}.}.}.}.}.}.}.}.}.}.}.}.}.}.}.}.}.R.z.a.|.|.",
"|.|.f.a.a.n.~.}.}.}.}.}.}.}.}.}.}.}.}.}.}.}.}.}.(.  X X < p M Z C C p 2 X o   (.}.}.}.}.}.}.}.}.}.}.}.}.}.}.}.}.}.~.b.a.a.f.|.|.",
"|.|.|.f.a.a.a.N.}.}.}.}.}.}.}.}.}.}.}.}.}.}.}.}.}.}.F.; X < 7 d h 7 X X ; F.}.}.}.}.}.}.}.}.}.}.}.}.}.}.}.}.}.}.N.a.a.a.f.|.|.|.",
"|.|.|.|.|.f.a.a.z.V.}.}.}.}.}.}.}.}.}.}.}.}.}.}.}.}.}.}.P.+ < < < < + P.}.}.}.}.}.}.}.}.}.}.}.}.}.}.}.}.}.}.U.z.a.a.f.|.|.|.|.|.",
"|.|.|.|.|.|.|.a.a.a.b.R.}.}.}.}.}.}.}.}.}.}.}.}.}.}.}.}.}.).L.& & L.).}.}.}.}.}.}.}.}.}.}.}.}.}.}.}.}.}.R.z.f.f.a.|.|.|.|.|.|.|.",
"|.|.|.|.|.|.|.|.|.a.a.a.n.~.}.}.}.}.}.}.}.}.}.}.}.}.}.}.}.}.}.(.Z.}.}.}.}.}.}.}.}.}.}.}.}.}.}.}.}.}.~.n.a.a.a.|.|.|.|.|.|.|.|.|.",
"|.|.|.|.|.|.|.|.|.|.a.a.a.a.V.~.}.}.}.}.}.}.}.}.}.}.}.}.}.}.}.}.}.}.}.}.}.}.}.}.}.}.}.}.}.}.}.}.'.V.f.a.a.a.|.|.|.|.|.|.|.|.|.|.",
"|.|.|.|.|.|.|.|.|.|.|.|.a.a.a.z.T.}.}.}.}.}.}.}.}.}.}.}.}.}.}.}.}.}.}.}.}.}.}.}.}.}.}.}.}.}.}.U.z.a.a.a.|.|.|.|.|.|.|.|.|.|.|.|.",
"|.|.|.|.|.|.|.|.|.|.|.|.|.|.a.a.a.x.~.}.}.}.}.}.}.}.}.}.}.}.}.}.}.}.}.}.}.}.}.}.}.}.}.}.}.~.x.a.a.a.|.|.|.|.|.|.|.|.|.|.|.|.|.|.",
"|.|.|.|.|.|.|.|.|.|.|.|.|.|.|.|.a.a.a.n.'.}.}.}.}.}.}.}.}.}.}.}.}.}.}.}.}.}.}.}.}.}.}.'.n.f.a.a.|.|.|.|.|.|.|.|.|.|.|.|.|.|.|.|.",
"|.|.|.|.|.|.|.|.|.|.|.|.|.|.|.|.|.a.a.a.f.V.}.}.}.}.}.}.}.}.}.}.}.}.}.}.}.}.}.}.}.}.U.a.a.a.a.|.|.|.|.|.|.|.|.|.|.|.|.|.|.|.|.|.",
"|.|.|.|.|.|.|.|.|.|.|.|.|.|.|.|.|.|.|.a.a.a.z.U.}.}.}.}.}.}.}.}.}.}.}.}.}.}.}.}.T.z.a.a.a.|.|.|.|.|.|.|.|.|.|.|.|.|.|.|.|.|.|.|.",
"|.|.|.|.|.|.|.|.|.|.|.|.|.|.|.|.|.|.|.|.|.a.a.a.b.R.}.}.}.}.}.}.}.}.}.}.}.}.~.x.a.a.a.|.|.|.|.|.|.|.|.|.|.|.|.|.|.|.|.|.|.|.|.|.",
"|.|.|.|.|.|.|.|.|.|.|.|.|.|.|.|.|.|.|.|.|.|.a.a.a.a.N.}.}.}.}.}.}.}.}.}.'.N.a.a.a.a.|.|.|.|.|.|.|.|.|.|.|.|.|.|.|.|.|.|.|.|.|.|.",
"|.|.|.|.|.|.|.|.|.|.|.|.|.|.|.|.|.|.|.|.|.|.|.|.a.a.a.f.V.}.}.}.}.}.}.V.a.a.a.a.|.|.|.|.|.|.|.|.|.|.|.|.|.|.|.|.|.|.|.|.|.|.|.|.",
"|.|.|.|.|.|.|.|.|.|.|.|.|.|.|.|.|.|.|.|.|.|.|.|.|.|.a.a.a.z.R.}.}.R.z.a.a.a.|.|.|.|.|.|.|.|.|.|.|.|.|.|.|.|.|.|.|.|.|.|.|.|.|.|.",
"|.|.|.|.|.|.|.|.|.|.|.|.|.|.|.|.|.|.|.|.|.|.|.|.|.|.|.|.a.a.a.b.b.a.a.a.|.|.|.|.|.|.|.|.|.|.|.|.|.|.|.|.|.|.|.|.|.|.|.|.|.|.|.|.",
"|.|.|.|.|.|.|.|.|.|.|.|.|.|.|.|.|.|.|.|.|.|.|.|.|.|.|.|.|.a.a.a.a.a.a.|.|.|.|.|.|.|.|.|.|.|.|.|.|.|.|.|.|.|.|.|.|.|.|.|.|.|.|.|.",
"|.|.|.|.|.|.|.|.|.|.|.|.|.|.|.|.|.|.|.|.|.|.|.|.|.|.|.|.|.|.|.i.a.|.|.|.|.|.|.|.|.|.|.|.|.|.|.|.|.|.|.|.|.|.|.|.|.|.|.|.|.|.|.|."
};
